<svg class="duration-300 ease-in-out group-[.is-open]:h-12 group-[.is-open]:w-12 h-8 transition-all w-8"viewBox="0 0 1417.32 1417.32"xmlns=http://www.w3.org/2000/svg><g id=surface1><path d="M 610.476563 811.042969 C 610.476563 865.226563 654.398438 909.148438 708.582031 909.148438 C 762.761719 909.148438 806.6875 865.226563 806.6875 811.042969 C 806.6875 756.863281 762.761719 712.941406 708.582031 712.941406 C 654.398438 712.941406 610.476563 756.863281 610.476563 811.042969 "style=stroke:none;fill-rule:nonzero;fill:rgb(7.951355%,10.824585%,13.110352%);fill-opacity:1 /><path d="M 950.621094 649.136719 C 950.621094 649.136719 730.148438 373.542969 466.539063 644.34375 L 579.472656 725.820313 C 579.472656 725.820313 702.589844 585.628906 834.394531 725.820313 Z M 950.621094 649.136719 "style=stroke:none;fill-rule:nonzero;fill:rgb(7.951355%,10.824585%,13.110352%);fill-opacity:1 /><path d="M 907.484375 144.683594 C 907.484375 144.683594 624.707031 72.789063 437.78125 175.835938 L 303.582031 525.21875 L 417.414063 613.1875 C 417.414063 613.1875 698.996094 272.894531 1000.949219 613.1875 L 1113.582031 532.90625 C 1113.582031 532.90625 963.800781 238.144531 515.667969 351.976563 L 546.820313 277.6875 C 546.820313 277.6875 721.761719 238.144531 851.167969 281.28125 Z M 907.484375 144.683594 "style=stroke:none;fill-rule:nonzero;fill:rgb(7.951355%,10.824585%,13.110352%);fill-opacity:1 /><path d="M 1201.457031 749.785156 L 1200.640625 749.785156 L 1200.640625 749.761719 L 832.1875 749.761719 C 832.1875 749.761719 866.019531 812.085938 832.1875 886.382813 L 1074.101563 886.382813 L 1073.914063 890.882813 C 1035.023438 1056.648438 886.042969 1180.488281 708.582031 1180.488281 C 501.628906 1180.488281 333.257813 1012.121094 333.257813 805.167969 C 333.257813 786.351563 334.6875 767.867188 337.375 749.785156 L 215.707031 749.785156 C 213.675781 767.980469 212.535156 786.4375 212.535156 805.167969 C 212.535156 1078.683594 435.0625 1301.210938 708.582031 1301.210938 C 952.859375 1301.210938 1156.316406 1123.667969 1197.058594 890.882813 L 1197.195313 890.882813 L 1197.195313 890.125 C 1201.984375 862.5 1204.625 834.144531 1204.625 805.167969 C 1204.625 786.4375 1203.484375 767.980469 1201.457031 749.785156 "style=stroke:none;fill-rule:nonzero;fill:rgb(7.951355%,10.824585%,13.110352%);fill-opacity:1 /></g></svg>